<?xml version="1.0" standalone="no"?>
<!DOCTYPE svg PUBLIC "-//W3C//DTD SVG 20010904//EN"
 "http://www.w3.org/TR/2001/REC-SVG-20010904/DTD/svg10.dtd">
<svg version="1.0" xmlns="http://www.w3.org/2000/svg"
 width="500.000000pt" height="500.000000pt" viewBox="0 0 500.000000 500.000000"
 preserveAspectRatio="xMidYMid meet">

<g transform="translate(0.000000,500.000000) scale(0.100000,-0.100000)"
fill="#000000" stroke="none">
<path d="M2180 4654 c-646 -88 -1212 -498 -1501 -1089 -287 -588 -257 -1300
79 -1863 231 -386 583 -682 996 -837 502 -187 1052 -165 1538 62 l98 46 32
-27 c67 -55 186 -129 273 -171 173 -82 319 -115 510 -115 135 0 285 29 285 55
0 12 -16 15 -77 15 -187 0 -388 66 -566 185 -67 44 -237 184 -237 194 0 4 19
21 43 38 128 93 333 315 440 478 331 507 411 1126 221 1705 -233 709 -863
1228 -1607 1325 -144 18 -385 18 -527 -1z m485 -109 c560 -66 1062 -385 1360
-866 326 -526 366 -1180 106 -1754 -107 -234 -312 -494 -530 -669 l-84 -67
-105 103 c-123 122 -470 495 -816 878 -137 151 -276 303 -310 338 -57 59 -59
62 -34 62 53 0 173 31 233 61 170 83 309 267 366 484 30 116 30 301 0 410 -33
117 -75 189 -166 281 -65 66 -96 89 -167 123 -161 78 -192 81 -827 81 l-555 0
35 36 c18 20 73 67 120 105 392 313 876 452 1374 394z m-1408 -592 c48 -23
101 -77 124 -127 18 -39 19 -90 19 -1147 l0 -1105 -26 -52 c-29 -59 -98 -118
-148 -127 -77 -13 -75 -14 -155 76 -226 254 -375 553 -441 884 -28 138 -38
437 -20 582 44 350 194 691 423 962 l71 83 59 -6 c32 -3 75 -13 94 -23z m954
-67 c123 -26 206 -83 273 -186 79 -120 106 -227 106 -413 0 -203 -40 -316
-146 -423 -119 -120 -284 -174 -531 -174 -122 0 -133 -2 -133 -18 0 -11 14
-25 34 -34 52 -25 95 -67 290 -283 99 -110 307 -339 461 -510 154 -170 334
-371 399 -445 66 -74 166 -183 224 -241 l104 -106 -94 -40 c-218 -94 -374
-134 -610 -153 -234 -19 -487 11 -716 85 -209 69 -479 220 -617 349 l-60 55
373 1 c295 0 372 3 372 13 0 8 -26 17 -71 24 -83 13 -137 46 -184 112 l-30 43
-3 1179 -2 1179 247 0 c175 0 268 -5 314 -14z"/>
</g>
</svg>
